<svg xmlns="http://www.w3.org/2000/svg" xmlns:xlink="http://www.w3.org/1999/xlink" viewBox="0 0 228 127"><defs><style>.a,.c{fill:url(#a)}.a{clip-rule:evenodd}.b{fill:none;stroke:#133d8d;stroke-miterlimit:3.86;stroke-width:.84px}.c{fill-rule:evenodd}.d{clip-path:url(#c)}.e{fill:url(#d)}.f{fill:#133d8d}.g{fill:#fff}</style><linearGradient id="a" x1="87.44" y1="17.21" x2="105.35" y2="35.12" gradientUnits="userSpaceOnUse"><stop offset=".49" stop-color="#e51937"/><stop offset=".55" stop-color="#de1735"/><stop offset=".64" stop-color="#c9122e"/><stop offset=".75" stop-color="#a70922"/><stop offset=".78" stop-color="#9d061f"/></linearGradient><clipPath id="c"><path class="a" d="M96.38 38.82a12.66 12.66 0 1 1 12.68-12.65 12.65 12.65 0 0 1-12.68 12.65z"/></clipPath><linearGradient id="d" x1="82.65" y1="12.42" x2="110.25" y2="40.02" xlink:href="#a"/></defs><title>Artboard 1</title><path class="b" d="M223.23 103.22a25.35 25.35 0 0 1-5.67 5c-6.28 4.14-15.25 7.46-25.95 10.06-21.34 5.17-50.15 8.13-77.7 8.13s-56.36-3-77.7-8.13c-10.75-2.6-19.67-5.92-26-10.06a25.51 25.51 0 0 1-5.64-5A18.11 18.11 0 0 1 .42 91.64V35.16A18.15 18.15 0 0 1 3.89 24.5a25.28 25.28 0 0 1 6.36-5.89c6.29-4.14 15.26-7.46 26-10C57.55 3.38 86.37.42 113.91.42s56.36 3 77.7 8.14c10.74 2.59 19.67 5.91 25.95 10a25 25 0 0 1 6.38 5.88 17.92 17.92 0 0 1 3.48 10.64v56.6a18 18 0 0 1-4.19 11.54z"/><path class="c" d="M96.38 38.82a12.66 12.66 0 1 1 12.68-12.65 12.65 12.65 0 0 1-12.68 12.65z"/><g class="d"><path class="e" d="M82.65 12.42h27.6v27.6h-27.6z"/></g><path class="f" d="M219.4 27.88a19.68 19.68 0 0 0-4.94-4.52c-5.5-3.6-13.74-6.74-24.19-9.28-20.79-5-49.13-8-76.31-8s-55.57 2.92-76.37 8c-10.44 2.54-18.68 5.68-24.19 9.28a19.47 19.47 0 0 0-4.92 4.53 12.4 12.4 0 0 0-2.36 7.31v56.52a12.27 12.27 0 0 0 2.9 8 19.84 19.84 0 0 0 4.39 3.89c5.51 3.61 13.75 6.75 24.19 9.28 20.8 5 49.14 8 76.37 8s55.57-2.94 76.31-8c10.45-2.53 18.69-5.67 24.19-9.28a20 20 0 0 0 4.41-3.91 12.28 12.28 0 0 0 2.87-7.94V35.17a12.26 12.26 0 0 0-2.37-7.29m-123 10.75a12.52 12.52 0 1 1 12.53-12.52 12.53 12.53 0 0 1-12.53 12.52"/><path class="g" d="M189.56 54.36V85a2.31 2.31 0 0 0 4.61 0V54.36a2.31 2.31 0 0 0-4.61 0m18.28 15.33c0 8.6-.74 15.68-1.5 17.89a9.59 9.59 0 0 1-.76 1.7c-3.15 2.32-8.36 3.08-13.65 3.15s-10.51-.83-13.66-3.15a9.63 9.63 0 0 1-.77-1.7c-.75-2.21-1.47-9.3-1.49-17.89s.74-15.69 1.49-17.89a9.63 9.63 0 0 1 .77-1.7c3.15-2.31 8.36-3.08 13.66-3.14s10.5.83 13.65 3.14a9.59 9.59 0 0 1 .76 1.7c.76 2.22 1.47 9.3 1.5 17.89M67.81 28.21v22.27a19.07 19.07 0 0 1 8.19-2.3 9 9 0 0 1 6 2.15 8.42 8.42 0 0 1 3.06 4.88 57.75 57.75 0 0 1 .57 10v31a42.25 42.25 0 0 1-12.8 0V59.35a2.52 2.52 0 0 0-2.47-2.51 2.49 2.49 0 0 0-2.58 2.36v28.52a49.1 49.1 0 0 1-13.59 0V28.21a46.82 46.82 0 0 1 13.58 0M50.81 74.12c-.21 6.55-.39 11.68-1 13.5a8.72 8.72 0 0 1-.78 1.7c-3.13 2.31-8.36 3.09-13.65 3.14s-10.5-.83-13.65-3.14a9.59 9.59 0 0 1-.76-1.7c-.76-2.22-1.47-9.29-1.48-17.88s.71-15.68 1.51-17.9a9.59 9.59 0 0 1 .76-1.7c3.15-2.31 8.37-3.09 13.65-3.15s10.52.84 13.65 3.15a9 9 0 0 1 .78 1.7c.63 1.86.83 6.83 1 13.53H37.69v-11a2.33 2.33 0 0 0-4.63 0v30.68a2.33 2.33 0 0 0 4.63 0V74.12zm87.47 4.18c-.2 6.55-.39 11.68-1 13.5a9.59 9.59 0 0 1-.76 1.7c-3.15 2.32-8.36 3.1-13.65 3.15s-10.52-.83-13.65-3.15a9.39 9.39 0 0 1-.81-1.73c-.75-2.21-1.47-9.3-1.48-17.88s.73-15.67 1.48-17.9a9.63 9.63 0 0 1 .77-1.7c3.14-2.31 8.37-3.08 13.65-3.14s10.51.83 13.66 3.14a10.37 10.37 0 0 1 .76 1.7c.63 1.86.83 6.84 1 13.53h-13.08V58.58a2.32 2.32 0 0 0-4.62 0v30.67a2.32 2.32 0 0 0 4.62 0v-11zm34.41-8.58c-.2 6.55-.39 11.68-1 13.5a11 11 0 0 1-.78 1.71c-3.15 2.31-8.36 3.08-13.65 3.13s-10.51-.82-13.65-3.13a10 10 0 0 1-.76-1.71c-.76-2.22-1.47-9.29-1.49-17.89s.73-15.67 1.49-17.88a9.59 9.59 0 0 1 .76-1.7c3.14-2.32 8.37-3.1 13.65-3.15s10.5.83 13.65 3.15a10.46 10.46 0 0 1 .78 1.7c.62 1.85.81 6.82 1 13.53h-13.12V50a2.32 2.32 0 0 0-4.57 0v30.67a2.32 2.32 0 0 0 4.62 0v-11zm-69.35-26.38v44.22a43.13 43.13 0 0 1-13.7 0V43.34a36.28 36.28 0 0 1 13.7 0M207 44.84a2.45 2.45 0 0 0-.73 1.79 2.51 2.51 0 0 0 2 2.46 2.52 2.52 0 1 0-1.3-4.25m3.86 3.87a2.86 2.86 0 0 1-2.08.86 2.94 2.94 0 1 1 2.08-.86m-1.53-3.22a1.62 1.62 0 0 0-.69-.12h-.47v1.16h.52a1.54 1.54 0 0 0 .52-.06.52.52 0 0 0 .34-.51.47.47 0 0 0-.22-.47m-.6-.51a2.63 2.63 0 0 1 .88.11.79.79 0 0 1 .49.82.71.71 0 0 1-.31.64 1.36 1.36 0 0 1-.47.15.76.76 0 0 1 .56.32 1 1 0 0 1 .17.5V48a.22.22 0 0 0 0 .16h-.53v-.43c0-.37-.09-.61-.3-.73a1.36 1.36 0 0 0-.63-.11h-.44v1.27h-.57v-3.27z"/></svg>