<svg xmlns="http://www.w3.org/2000/svg" viewBox="5828 2203.7 75.801 114"><defs><style>.cls-1{fill:#707375}.cls-1,.cls-2,.cls-3{fill-rule:evenodd}.cls-2,.cls-4{fill:#fff}.cls-3{fill:#bfd630}</style></defs><g id="Group_240" data-name="Group 240" transform="translate(5692 2189)"><path id="Path_3658" data-name="Path 3658" class="cls-1" d="M156.639 13.7H95.162A7.164 7.164 0 0 0 88 20.862v99.675a7.164 7.164 0 0 0 7.162 7.162h61.476a7.164 7.164 0 0 0 7.162-7.162V20.862a7.164 7.164 0 0 0-7.162-7.162" transform="translate(48 1)"/><path id="Path_3659" data-name="Path 3659" class="cls-2" d="M114.876 77.6a4.476 4.476 0 1 0 4.476 4.476 4.588 4.588 0 0 0-4.476-4.476" transform="translate(59.024 32.448)"/><path id="Path_3660" data-name="Path 3660" class="cls-3" d="M147.911 18.8H98.819C95.686 18.8 93 21.038 93 23.873v70.28c0 2.835 2.537 5.073 5.819 5.073h49.092c3.134 0 5.819-2.238 5.819-5.073v-70.13a5.534 5.534 0 0 0-5.819-5.223" transform="translate(50.461 3.51)"/><path id="Path_3661" data-name="Path 3661" class="cls-4" d="M136.84 54.583l1.194-5.521c.149-.448.149-.9.3-1.194.149-.448.149-.9.3-1.343a4.131 4.131 0 0 0 .149-1.343c0 .448.149.9.149 1.343s.149.9.149 1.343a2.811 2.811 0 0 0 .3 1.194l1.045 5.521h3.134l3.278-12.683h-2.984l-1.044 5.223-.448 2.238a11.519 11.519 0 0 0-.3 2.238c-.149-.746-.149-1.343-.3-2.089s-.3-1.343-.448-2.089l-1.044-5.372h-2.984l-1.045 5.223c-.149.746-.3 1.492-.448 2.387-.149.746-.3 1.492-.448 2.089 0-.448-.149-.9-.149-1.343-.149-.448-.149-1.045-.3-1.492s-.149-1.044-.3-1.492l-.9-5.223h-3.134l2.984 12.683h3.283zm-16.712 0l1.194-5.521c.149-.448.149-.9.3-1.194.149-.448.149-.9.3-1.343a4.131 4.131 0 0 0 .149-1.343c0 .448.149.9.149 1.343s.149.9.149 1.343a2.811 2.811 0 0 0 .3 1.194l1.045 5.521h3.134l3.278-12.683h-2.984l-1.042 5.223-.448 2.238a11.518 11.518 0 0 0-.3 2.238c-.149-.746-.149-1.343-.3-2.089s-.3-1.343-.448-2.089l-1.045-5.372h-2.984l-1.045 5.223c-.149.746-.3 1.492-.448 2.387-.149.746-.3 1.492-.448 2.089 0-.448-.149-.9-.149-1.343-.149-.448-.149-1.045-.3-1.492s-.149-1.044-.3-1.492l-.9-5.223h-3.134l2.984 12.683h3.283zm-16.861 0l1.194-5.521c.149-.448.149-.9.3-1.194.149-.448.149-.9.3-1.343a4.131 4.131 0 0 0 .149-1.343c0 .448.149.9.149 1.343s.149.9.149 1.343a2.811 2.811 0 0 0 .3 1.194l1.044 5.521h3.134l3.278-12.683h-2.984l-1.045 5.223-.448 2.238a11.519 11.519 0 0 0-.3 2.238c-.149-.746-.149-1.343-.3-2.089s-.3-1.343-.448-2.089l-1.039-5.372h-2.984l-1.044 5.223c-.149.746-.3 1.492-.448 2.387-.149.746-.3 1.492-.448 2.089 0-.448-.149-.9-.149-1.343-.149-.448-.149-1.045-.3-1.492s-.149-1.044-.3-1.492l-.9-5.223H97l2.984 12.683h3.283z" transform="translate(52.429 14.879)"/></g></svg>