<svg xmlns="http://www.w3.org/2000/svg" viewBox="6218.199 2203.5 75.801 114"><defs><style>.cls-1{fill:#707375}.cls-1,.cls-2,.cls-3{fill-rule:evenodd}.cls-2{fill:#bfd630}.cls-3{fill:#fff}</style></defs><g id="Group_241" data-name="Group 241" transform="translate(6083.199 2189)"><path id="Path_3669" data-name="Path 3669" class="cls-1" d="M156.639 127.5H95.162A7.164 7.164 0 0 1 88 120.338V20.662a7.164 7.164 0 0 1 7.162-7.162h61.476a7.164 7.164 0 0 1 7.162 7.162v99.675a7.071 7.071 0 0 1-7.162 7.162" transform="translate(47 1)"/><path id="Path_3670" data-name="Path 3670" class="cls-2" d="M147.911 111.327H98.819c-3.133 0-5.819-1.641-5.819-3.73V34.63c0-2.089 2.537-3.73 5.819-3.73h49.092c3.134 0 5.819 1.641 5.819 3.73v72.97c0 2.089-2.537 3.73-5.819 3.73" transform="translate(49.461 9.563)"/><path id="Path_3671" data-name="Path 3671" class="cls-3" d="M137.532 86.4a3.432 3.432 0 1 1-3.432 3.432 3.377 3.377 0 0 1 3.432-3.432m-23.427 0a3.432 3.432 0 1 1-3.432 3.432 3.377 3.377 0 0 1 3.433-3.432zm-2.685-28.5l7.908.448 1.044 5.223h-7.012zm19.249 1.194l7.759.448v3.432a.4.4 0 0 1-.448.448h-6.864zm9.251 12.832l.9-.149c1.044-.3 1.343-1.194 1.492-2.387.149-3.581.3-7.162.3-10.594a3.5 3.5 0 0 0-.746-2.387c-.746-1.045-3.73-.9-5.521-.9l-26.56-1.641c0 .149-.9-2.089-1.492-3.73-.448-1.045-.9-2.238-2.387-2.238h-7.915a2.073 2.073 0 0 0-1.791 1.94v.3a1.792 1.792 0 0 0 1.791 1.641h6.864l2.537 6.565.9 2.387 4.626 11.788c-2.238.6-5.223 2.984-4.924 5.819l.149 2.089c1.194 1.791 2.387 3.88 5.372 3.88h26.709c.9 0 2.089-.6 2.089-1.343v-.746c0-2.537-4.178-1.791-6.715-1.791h-21.343c-.9 0-1.194 0-1.641-.448a2.422 2.422 0 0 1-.746-1.343v-.3c0-2.686 3.73-2.387 5.969-2.835 2.537-.6 4.924-.746 7.461-1.194 1.491-.296 14.174-2.087 14.622-2.385zm-23.427-.149l-2.387-6.416h6.715l1.044 5.521zm21.935-3.432l-6.715.9-.448-3.88h7.162zm-9.848-9.55l.448 4.626h-6.864l-.9-4.924zm-5.819 6.565h6.565l.448 4.476-5.969.746c-.299-1.792-.746-3.582-1.045-5.224z" transform="translate(51.036 17.93)"/><path id="Path_3672" data-name="Path 3672" class="cls-3" d="M98.273 18.6a5.159 5.159 0 0 1 5.073 5.223v22.083a5.067 5.067 0 0 1-5.073 5.223 5.159 5.159 0 0 1-5.073-5.223V23.823a5.159 5.159 0 0 1 5.073-5.223" transform="translate(49.559 3.51)"/><path id="Path_3673" data-name="Path 3673" class="cls-3" d="M106.673 18.6a5.159 5.159 0 0 1 5.073 5.223v22.083a5.067 5.067 0 0 1-5.073 5.223 5.159 5.159 0 0 1-5.073-5.223V23.823a5.159 5.159 0 0 1 5.073-5.223" transform="translate(53.693 3.51)"/><path id="Path_3674" data-name="Path 3674" class="cls-3" d="M115.073 18.6a5.159 5.159 0 0 1 5.073 5.223v22.083a5.067 5.067 0 0 1-5.073 5.223A5.159 5.159 0 0 1 110 45.906V23.823a5.159 5.159 0 0 1 5.073-5.223" transform="translate(57.827 3.51)"/><path id="Path_3675" data-name="Path 3675" class="cls-3" d="M123.476 18.6a5.159 5.159 0 0 1 5.073 5.223v22.083a5.067 5.067 0 0 1-5.073 5.223 5.159 5.159 0 0 1-5.073-5.223V23.823a5.065 5.065 0 0 1 5.073-5.223" transform="translate(61.959 3.51)"/><path id="Path_3676" data-name="Path 3676" class="cls-3" d="M131.875 18.6a5.159 5.159 0 0 1 5.073 5.223v22.083a5.067 5.067 0 0 1-5.073 5.223 5.159 5.159 0 0 1-5.073-5.223V23.823a5.065 5.065 0 0 1 5.073-5.223" transform="translate(66.093 3.51)"/><path id="Path_3677" data-name="Path 3677" class="cls-3" d="M153.483 25.016v14.176H93.2V25.016a6.464 6.464 0 0 1 6.416-6.416h47.6a6.338 6.338 0 0 1 6.267 6.416" transform="translate(49.559 3.51)"/></g></svg>